<svg width="99" height="50" viewBox="0 0 99 50" fill="none" xmlns="http://www.w3.org/2000/svg">
<rect x="12" y="12" width="37.3333" height="37.3333" rx="8" fill="#FF8400"/>
<path fill-rule="evenodd" clip-rule="evenodd" d="M33.3158 25.0513C33.4404 25.0928 33.5557 25.1584 33.655 25.2444C33.7542 25.3304 33.8356 25.4352 33.8944 25.5526C33.9531 25.6701 33.9882 25.798 33.9975 25.9291C34.0069 26.0601 33.9903 26.1917 33.9488 26.3163L29.9488 38.3163C29.865 38.568 29.6846 38.7761 29.4474 38.8948C29.2102 39.0135 28.9355 39.0331 28.6838 38.9493C28.4321 38.8655 28.224 38.6851 28.1053 38.4479C27.9866 38.2107 27.967 37.936 28.0508 37.6843L32.0508 25.6843C32.0923 25.5596 32.1579 25.4444 32.2439 25.3451C32.3299 25.2458 32.4347 25.1645 32.5521 25.1057C32.6696 25.0469 32.7975 25.0119 32.9286 25.0025C33.0596 24.9932 33.1912 25.0098 33.3158 25.0513ZM26.7068 28.2933C26.8943 28.4808 26.9996 28.7351 26.9996 29.0003C26.9996 29.2655 26.8943 29.5198 26.7068 29.7073L24.4138 32.0003L26.7068 34.2933C26.8023 34.3855 26.8785 34.4959 26.9309 34.6179C26.9833 34.7399 27.0109 34.8711 27.012 35.0039C27.0132 35.1367 26.9879 35.2683 26.9376 35.3912C26.8873 35.5141 26.8131 35.6258 26.7192 35.7197C26.6253 35.8136 26.5136 35.8878 26.3907 35.9381C26.2678 35.9884 26.1362 36.0137 26.0034 36.0125C25.8706 36.0114 25.7394 35.9838 25.6174 35.9314C25.4954 35.879 25.385 35.8028 25.2928 35.7073L22.2928 32.7073C22.1053 32.5198 22 32.2655 22 32.0003C22 31.7351 22.1053 31.4808 22.2928 31.2933L25.2928 28.2933C25.4803 28.1058 25.7346 28.0005 25.9998 28.0005C26.265 28.0005 26.5193 28.1058 26.7068 28.2933ZM35.2928 28.2933C35.4803 28.1058 35.7346 28.0005 35.9998 28.0005C36.265 28.0005 36.5193 28.1058 36.7068 28.2933L39.7068 31.2933C39.8943 31.4808 39.9996 31.7351 39.9996 32.0003C39.9996 32.2655 39.8943 32.5198 39.7068 32.7073L36.7068 35.7073C36.6145 35.8028 36.5042 35.879 36.3822 35.9314C36.2602 35.9838 36.129 36.0114 35.9962 36.0125C35.8634 36.0137 35.7317 35.9884 35.6088 35.9381C35.4859 35.8878 35.3743 35.8136 35.2804 35.7197C35.1865 35.6258 35.1122 35.5141 35.062 35.3912C35.0117 35.2683 34.9864 35.1367 34.9875 35.0039C34.9887 34.8711 35.0163 34.7399 35.0687 34.6179C35.1211 34.4959 35.1973 34.3855 35.2928 34.2933L37.5858 32.0003L35.2928 29.7073C35.1053 29.5198 35 29.2655 35 29.0003C35 28.7351 35.1053 28.4808 35.2928 28.2933Z" fill="#FFE6CC"/>
<rect width="37.3333" height="37.3333" rx="8" fill="#3F1E1E"/>
<path fill-rule="evenodd" clip-rule="evenodd" d="M21.3158 12.0513C21.4404 12.0928 21.5557 12.1584 21.655 12.2444C21.7542 12.3304 21.8356 12.4352 21.8944 12.5526C21.9531 12.6701 21.9882 12.798 21.9975 12.9291C22.0069 13.0601 21.9903 13.1917 21.9488 13.3163L17.9488 25.3163C17.865 25.568 17.6846 25.7761 17.4474 25.8948C17.2102 26.0135 16.9355 26.0331 16.6838 25.9493C16.4321 25.8655 16.224 25.6851 16.1053 25.4479C15.9866 25.2107 15.967 24.936 16.0508 24.6843L20.0508 12.6843C20.0923 12.5596 20.1579 12.4444 20.2439 12.3451C20.3299 12.2458 20.4347 12.1645 20.5521 12.1057C20.6696 12.0469 20.7975 12.0119 20.9286 12.0025C21.0596 11.9932 21.1912 12.0098 21.3158 12.0513ZM14.7068 15.2933C14.8943 15.4808 14.9996 15.7351 14.9996 16.0003C14.9996 16.2655 14.8943 16.5198 14.7068 16.7073L12.4138 19.0003L14.7068 21.2933C14.8023 21.3855 14.8785 21.4959 14.9309 21.6179C14.9833 21.7399 15.0109 21.8711 15.012 22.0039C15.0132 22.1367 14.9879 22.2683 14.9376 22.3912C14.8873 22.5141 14.8131 22.6258 14.7192 22.7197C14.6253 22.8136 14.5136 22.8878 14.3907 22.9381C14.2678 22.9884 14.1362 23.0137 14.0034 23.0125C13.8706 23.0114 13.7394 22.9838 13.6174 22.9314C13.4954 22.879 13.385 22.8028 13.2928 22.7073L10.2928 19.7073C10.1053 19.5198 10 19.2655 10 19.0003C10 18.7351 10.1053 18.4808 10.2928 18.2933L13.2928 15.2933C13.4803 15.1058 13.7346 15.0005 13.9998 15.0005C14.265 15.0005 14.5193 15.1058 14.7068 15.2933ZM23.2928 15.2933C23.4803 15.1058 23.7346 15.0005 23.9998 15.0005C24.265 15.0005 24.5193 15.1058 24.7068 15.2933L27.7068 18.2933C27.8943 18.4808 27.9996 18.7351 27.9996 19.0003C27.9996 19.2655 27.8943 19.5198 27.7068 19.7073L24.7068 22.7073C24.6145 22.8028 24.5042 22.879 24.3822 22.9314C24.2602 22.9838 24.129 23.0114 23.9962 23.0125C23.8634 23.0137 23.7317 22.9884 23.6088 22.9381C23.4859 22.8878 23.3743 22.8136 23.2804 22.7197C23.1865 22.6258 23.1122 22.5141 23.062 22.3912C23.0117 22.2683 22.9864 22.1367 22.9875 22.0039C22.9887 21.8711 23.0163 21.7399 23.0687 21.6179C23.1211 21.4959 23.1973 21.3855 23.2928 21.2933L25.5858 19.0003L23.2928 16.7073C23.1053 16.5198 23 16.2655 23 16.0003C23 15.7351 23.1053 15.4808 23.2928 15.2933Z" fill="#ECE8E8"/>
<path d="M66.184 32.24C64.616 32.24 63.248 31.632 62.08 30.416V31.04C62.08 31.344 61.968 31.6 61.744 31.808C61.536 32.016 61.28 32.12 60.976 32.12C60.672 32.12 60.416 32.016 60.208 31.808C60 31.6 59.896 31.344 59.896 31.04V15.464C59.896 15.16 60 14.904 60.208 14.696C60.416 14.472 60.672 14.36 60.976 14.36C61.296 14.36 61.56 14.464 61.768 14.672C61.976 14.88 62.08 15.144 62.08 15.464V21.344C63.248 20.128 64.616 19.52 66.184 19.52C67.176 19.52 68.112 19.776 68.992 20.288C69.888 20.784 70.608 21.52 71.152 22.496C71.712 23.456 71.992 24.584 71.992 25.88C71.992 27.176 71.712 28.312 71.152 29.288C70.608 30.248 69.888 30.984 68.992 31.496C68.112 31.992 67.176 32.24 66.184 32.24ZM65.872 30.2C67.056 30.2 68.008 29.824 68.728 29.072C69.448 28.32 69.808 27.256 69.808 25.88C69.808 24.504 69.448 23.44 68.728 22.688C68.008 21.936 67.056 21.56 65.872 21.56C65.136 21.56 64.44 21.728 63.784 22.064C63.144 22.384 62.576 22.816 62.08 23.36V28.4C62.576 28.944 63.144 29.384 63.784 29.72C64.44 30.04 65.136 30.2 65.872 30.2ZM75.5166 32.24C73.9166 32.24 72.4606 31.88 71.1486 31.16C70.8766 30.968 70.7406 30.704 70.7406 30.368C70.7406 30.112 70.8286 29.888 71.0046 29.696C71.1806 29.504 71.4046 29.408 71.6766 29.408C71.8206 29.408 71.9646 29.44 72.1086 29.504C72.6206 29.728 73.1326 29.904 73.6446 30.032C74.1566 30.16 74.7326 30.224 75.3726 30.224C77.1486 30.224 78.0366 29.656 78.0366 28.52C78.0366 28.152 77.8286 27.872 77.4126 27.68C77.0126 27.488 76.3486 27.272 75.4206 27.032C74.4766 26.808 73.6926 26.576 73.0686 26.336C72.4606 26.096 71.9326 25.736 71.4846 25.256C71.0526 24.76 70.8366 24.112 70.8366 23.312C70.8366 22.192 71.2366 21.28 72.0366 20.576C72.8526 19.872 74.0126 19.52 75.5166 19.52C76.7486 19.52 77.9086 19.72 78.9966 20.12C79.2206 20.184 79.3886 20.304 79.5006 20.48C79.6286 20.656 79.6926 20.84 79.6926 21.032C79.6926 21.288 79.5966 21.512 79.4046 21.704C79.2286 21.896 79.0046 21.992 78.7326 21.992C78.6526 21.992 78.5486 21.976 78.4206 21.944C77.4926 21.656 76.5806 21.512 75.6846 21.512C74.8206 21.512 74.1406 21.672 73.6446 21.992C73.1646 22.296 72.9246 22.696 72.9246 23.192C72.9246 23.672 73.1486 24.024 73.5966 24.248C74.0446 24.472 74.7406 24.688 75.6846 24.896C76.6286 25.136 77.3966 25.376 77.9886 25.616C78.5806 25.84 79.0846 26.2 79.5006 26.696C79.9326 27.192 80.1486 27.856 80.1486 28.688C80.1486 29.712 79.7406 30.56 78.9246 31.232C78.1246 31.904 76.9886 32.24 75.5166 32.24ZM85.2719 32.24C84.1199 32.24 83.0559 31.984 82.0799 31.472C81.1039 30.96 80.3199 30.224 79.7279 29.264C79.1519 28.304 78.8639 27.176 78.8639 25.88C78.8639 24.584 79.1519 23.456 79.7279 22.496C80.3199 21.536 81.1039 20.8 82.0799 20.288C83.0559 19.776 84.1199 19.52 85.2719 19.52C86.1199 19.52 86.8479 19.632 87.4559 19.856C88.0799 20.064 88.6559 20.336 89.1839 20.672C89.5039 20.88 89.6639 21.16 89.6639 21.512C89.6639 21.752 89.5679 21.976 89.3759 22.184C89.1999 22.376 88.9919 22.472 88.7519 22.472C88.5759 22.472 88.3999 22.424 88.2239 22.328C87.6959 22.056 87.2399 21.864 86.8559 21.752C86.4879 21.624 86.0239 21.56 85.4639 21.56C84.0879 21.56 83.0079 21.96 82.2239 22.76C81.4399 23.544 81.0479 24.584 81.0479 25.88C81.0479 27.176 81.4399 28.224 82.2239 29.024C83.0079 29.808 84.0879 30.2 85.4639 30.2C86.0239 30.2 86.4879 30.144 86.8559 30.032C87.2399 29.904 87.6959 29.704 88.2239 29.432C88.3999 29.336 88.5759 29.288 88.7519 29.288C88.9919 29.288 89.1999 29.392 89.3759 29.6C89.5679 29.792 89.6639 30.008 89.6639 30.248C89.6639 30.6 89.5039 30.88 89.1839 31.088C88.6559 31.424 88.0799 31.704 87.4559 31.928C86.8479 32.136 86.1199 32.24 85.2719 32.24ZM92.8847 32.24C91.2847 32.24 89.8287 31.88 88.5167 31.16C88.2447 30.968 88.1087 30.704 88.1087 30.368C88.1087 30.112 88.1967 29.888 88.3727 29.696C88.5487 29.504 88.7727 29.408 89.0447 29.408C89.1887 29.408 89.3327 29.44 89.4767 29.504C89.9887 29.728 90.5007 29.904 91.0127 30.032C91.5247 30.16 92.1007 30.224 92.7407 30.224C94.5167 30.224 95.4047 29.656 95.4047 28.52C95.4047 28.152 95.1967 27.872 94.7807 27.68C94.3807 27.488 93.7167 27.272 92.7887 27.032C91.8447 26.808 91.0607 26.576 90.4367 26.336C89.8287 26.096 89.3007 25.736 88.8527 25.256C88.4207 24.76 88.2047 24.112 88.2047 23.312C88.2047 22.192 88.6047 21.28 89.4047 20.576C90.2207 19.872 91.3807 19.52 92.8847 19.52C94.1167 19.52 95.2767 19.72 96.3648 20.12C96.5888 20.184 96.7568 20.304 96.8688 20.48C96.9967 20.656 97.0607 20.84 97.0607 21.032C97.0607 21.288 96.9647 21.512 96.7727 21.704C96.5967 21.896 96.3727 21.992 96.1007 21.992C96.0208 21.992 95.9167 21.976 95.7887 21.944C94.8607 21.656 93.9487 21.512 93.0527 21.512C92.1887 21.512 91.5087 21.672 91.0127 21.992C90.5327 22.296 90.2927 22.696 90.2927 23.192C90.2927 23.672 90.5167 24.024 90.9647 24.248C91.4127 24.472 92.1087 24.688 93.0527 24.896C93.9967 25.136 94.7647 25.376 95.3567 25.616C95.9487 25.84 96.4527 26.2 96.8688 26.696C97.3007 27.192 97.5167 27.856 97.5167 28.688C97.5167 29.712 97.1087 30.56 96.2927 31.232C95.4927 31.904 94.3568 32.24 92.8847 32.24Z" fill="black"/>
</svg>
