<svg width="163" height="279" viewBox="0 0 163 279" fill="none" xmlns="http://www.w3.org/2000/svg">
<path d="M32.736 251.96C26.464 251.96 20.992 249.528 16.32 244.664V247.16C16.32 248.376 15.872 249.4 14.976 250.232C14.144 251.064 13.12 251.48 11.904 251.48C10.688 251.48 9.664 251.064 8.832 250.232C8 249.4 7.584 248.376 7.584 247.16V184.856C7.584 183.64 8 182.616 8.832 181.784C9.664 180.888 10.688 180.44 11.904 180.44C13.184 180.44 14.24 180.856 15.072 181.688C15.904 182.52 16.32 183.576 16.32 184.856V208.376C20.992 203.512 26.464 201.08 32.736 201.08C36.704 201.08 40.448 202.104 43.968 204.152C47.552 206.136 50.432 209.08 52.608 212.984C54.848 216.824 55.968 221.336 55.968 226.52C55.968 231.704 54.848 236.248 52.608 240.152C50.432 243.992 47.552 246.936 43.968 248.984C40.448 250.968 36.704 251.96 32.736 251.96ZM31.488 243.8C36.224 243.8 40.032 242.296 42.912 239.288C45.792 236.28 47.232 232.024 47.232 226.52C47.232 221.016 45.792 216.76 42.912 213.752C40.032 210.744 36.224 209.24 31.488 209.24C28.544 209.24 25.76 209.912 23.136 211.256C20.576 212.536 18.304 214.264 16.32 216.44V236.6C18.304 238.776 20.576 240.536 23.136 241.88C25.76 243.16 28.544 243.8 31.488 243.8ZM70.0665 251.96C63.6665 251.96 57.8425 250.52 52.5945 247.64C51.5065 246.872 50.9625 245.816 50.9625 244.472C50.9625 243.448 51.3145 242.552 52.0185 241.784C52.7225 241.016 53.6185 240.632 54.7065 240.632C55.2825 240.632 55.8585 240.76 56.4345 241.016C58.4825 241.912 60.5305 242.616 62.5785 243.128C64.6265 243.64 66.9305 243.896 69.4905 243.896C76.5945 243.896 80.1465 241.624 80.1465 237.08C80.1465 235.608 79.3145 234.488 77.6505 233.72C76.0505 232.952 73.3945 232.088 69.6825 231.128C65.9065 230.232 62.7705 229.304 60.2745 228.344C57.8425 227.384 55.7305 225.944 53.9385 224.024C52.2105 222.04 51.3465 219.448 51.3465 216.248C51.3465 211.768 52.9465 208.12 56.1465 205.304C59.4105 202.488 64.0505 201.08 70.0665 201.08C74.9945 201.08 79.6345 201.88 83.9865 203.48C84.8825 203.736 85.5545 204.216 86.0025 204.92C86.5145 205.624 86.7705 206.36 86.7705 207.128C86.7705 208.152 86.3865 209.048 85.6185 209.816C84.9145 210.584 84.0185 210.968 82.9305 210.968C82.6105 210.968 82.1945 210.904 81.6825 210.776C77.9705 209.624 74.3225 209.048 70.7385 209.048C67.2825 209.048 64.5625 209.688 62.5785 210.968C60.6585 212.184 59.6985 213.784 59.6985 215.768C59.6985 217.688 60.5945 219.096 62.3865 219.992C64.1785 220.888 66.9625 221.752 70.7385 222.584C74.5145 223.544 77.5865 224.504 79.9545 225.464C82.3225 226.36 84.3385 227.8 86.0025 229.784C87.7305 231.768 88.5945 234.424 88.5945 237.752C88.5945 241.848 86.9625 245.24 83.6985 247.928C80.4985 250.616 75.9545 251.96 70.0665 251.96ZM109.088 251.96C104.48 251.96 100.224 250.936 96.3195 248.888C92.4155 246.84 89.2795 243.896 86.9115 240.056C84.6075 236.216 83.4555 231.704 83.4555 226.52C83.4555 221.336 84.6075 216.824 86.9115 212.984C89.2795 209.144 92.4155 206.2 96.3195 204.152C100.224 202.104 104.48 201.08 109.088 201.08C112.48 201.08 115.392 201.528 117.824 202.424C120.32 203.256 122.624 204.344 124.736 205.688C126.016 206.52 126.656 207.64 126.656 209.048C126.656 210.008 126.272 210.904 125.504 211.736C124.8 212.504 123.968 212.888 123.008 212.888C122.304 212.888 121.6 212.696 120.896 212.312C118.784 211.224 116.96 210.456 115.424 210.008C113.952 209.496 112.096 209.24 109.856 209.24C104.352 209.24 100.032 210.84 96.8955 214.04C93.7595 217.176 92.1915 221.336 92.1915 226.52C92.1915 231.704 93.7595 235.896 96.8955 239.096C100.032 242.232 104.352 243.8 109.856 243.8C112.096 243.8 113.952 243.576 115.424 243.128C116.96 242.616 118.784 241.816 120.896 240.728C121.6 240.344 122.304 240.152 123.008 240.152C123.968 240.152 124.8 240.568 125.504 241.4C126.272 242.168 126.656 243.032 126.656 243.992C126.656 245.4 126.016 246.52 124.736 247.352C122.624 248.696 120.32 249.816 117.824 250.712C115.392 251.544 112.48 251.96 109.088 251.96ZM139.539 251.96C133.139 251.96 127.315 250.52 122.067 247.64C120.979 246.872 120.435 245.816 120.435 244.472C120.435 243.448 120.787 242.552 121.491 241.784C122.195 241.016 123.091 240.632 124.179 240.632C124.755 240.632 125.331 240.76 125.907 241.016C127.955 241.912 130.003 242.616 132.051 243.128C134.099 243.64 136.403 243.896 138.963 243.896C146.067 243.896 149.619 241.624 149.619 237.08C149.619 235.608 148.787 234.488 147.123 233.72C145.523 232.952 142.867 232.088 139.155 231.128C135.379 230.232 132.243 229.304 129.747 228.344C127.315 227.384 125.203 225.944 123.411 224.024C121.683 222.04 120.819 219.448 120.819 216.248C120.819 211.768 122.419 208.12 125.619 205.304C128.883 202.488 133.523 201.08 139.539 201.08C144.467 201.08 149.107 201.88 153.459 203.48C154.355 203.736 155.027 204.216 155.475 204.92C155.987 205.624 156.243 206.36 156.243 207.128C156.243 208.152 155.859 209.048 155.091 209.816C154.387 210.584 153.491 210.968 152.403 210.968C152.083 210.968 151.667 210.904 151.155 210.776C147.443 209.624 143.795 209.048 140.211 209.048C136.755 209.048 134.035 209.688 132.051 210.968C130.131 212.184 129.171 213.784 129.171 215.768C129.171 217.688 130.067 219.096 131.859 219.992C133.651 220.888 136.435 221.752 140.211 222.584C143.987 223.544 147.059 224.504 149.427 225.464C151.795 226.36 153.811 227.8 155.475 229.784C157.203 231.768 158.067 234.424 158.067 237.752C158.067 241.848 156.435 245.24 153.171 247.928C149.971 250.616 145.427 251.96 139.539 251.96Z" fill="#3F1E1E"/>
<rect x="38.8096" y="38.8096" width="124.19" height="124.19" rx="8" fill="#FF8400"/>
<rect width="124.19" height="124.19" rx="8" fill="#3F1E1E"/>
</svg>
